# File created by Blade
# Date/Time:  Tue Jan 27 17:21:46 2015
#---------------------------------------------------------
:version 1.10
:name HOM
:units
  mass 1.0
  length 1.000000
  angle deg
:documentation
     Acclaim Skeleton File
:root
   axis xyz
   order TX TY TZ RX RY RZ
   position 0.000000 0.000000 0.000000
   orientation 0 0 0
:bonedata
   begin
      id 1
      name Spine_dum
      direction 0.000000 1.000000 0.000000
      length 7.539951
      axis 0.0 0.0 0.0 xyz
   end
   begin
      id 2
      name LeftUpLeg_dum
      direction 1.000000 0.000000 0.000000
      length 3.345476
      axis 0.0 0.0 0.0 xyz
   end
   begin
      id 3
      name RightUpLeg_dum
      direction -1.000000 0.000000 0.000000
      length 3.345476
      axis 0.0 0.0 0.0 xyz
   end
   begin
      id 4
      name Spine
      direction 0.000000 1.000000 0.000000
      length 0.000000
      axis 0.0 0.0 0.0 xyz
      dof rx ry rz
   end
   begin
      id 5
      name Spine_dum1
      direction 0.000000 1.000000 0.000000
      length 15.093809
      axis 0.0 0.0 0.0 xyz
   end
   begin
      id 6
      name Spine_dum2
      direction 0.000000 1.000000 0.000000
      length 9.738928
      axis 0.0 0.0 0.0 xyz
   end
   begin
      id 7
      name Spine_dum3
      direction 0.000000 1.000000 0.000000
      length 9.738928
      axis 0.0 0.0 0.0 xyz
   end
   begin
      id 8
      name Head
      direction 0.000000 1.000000 0.000000
      length 4.527550
      axis 0.0 0.0 0.0 xyz
      dof rx ry rz
   end
   begin
      id 9
      name LeftShoulder
      direction 1.000000 0.000000 0.000000
      length 7.084015
      axis 0.0 0.0 -90.0 xyz
      dof rx ry rz
   end
   begin
      id 10
      name LeftArm
      direction 1.000000 0.000000 0.000000
      length 10.259319
      axis 0.0 0.0 -90.0 xyz
      dof rx ry rz
   end
   begin
      id 11
      name LeftForeArm
      direction 1.000000 0.000000 0.000000
      length 9.896984
      axis 0.0 0.0 -90.0 xyz
      dof ry rz rx
   end
   begin
      id 12
      name LeftHand
      direction 0.000000 0.000000 0.000000
      length 0.000000
      axis 0.0 0.0 -90.0 xyz
      dof rx ry rz
   end
   begin
      id 13
      name LeftHand_dum1
      direction 0.000000 0.000000 0.000000
      length 0.000000
      axis 0.0 0.0 -90.0 xyz
   end
   begin
      id 14
      name LeftHand_dum2
      direction 1.000000 0.000000 0.000000
      length 3.937000
      axis 0.0 0.0 -90.0 xyz
   end
   begin
      id 15
      name LeftHandThumb1
      direction 0.000000 0.000000 1.000000
      length 3.937000
      axis 0.0 0.0 -90.0 xyz
      dof rx rz ry
   end
   begin
      id 16
      name RightShoulder
      direction -1.000000 0.000000 0.000000
      length 7.084015
      axis 0.0 0.0 90.0 xyz
      dof rx ry rz
   end
   begin
      id 17
      name RightArm
      direction -1.000000 0.000000 0.000000
      length 10.259319
      axis 0.0 0.0 90.0 xyz
      dof rx ry rz
   end
   begin
      id 18
      name RightForeArm
      direction -1.000000 0.000000 0.000000
      length 9.896984
      axis 0.0 0.0 90.0 xyz
      dof ry rz rx
   end
   begin
      id 19
      name RightHand
      direction 0.000000 0.000000 0.000000
      length 0.000000
      axis 0.0 0.0 90.0 xyz
      dof rx ry rz
   end
   begin
      id 20
      name RightHand_dum1
      direction 0.000000 0.000000 0.000000
      length 0.000000
      axis 0.0 0.0 90.0 xyz
   end
   begin
      id 21
      name RightHand_dum2
      direction -1.000000 0.000000 0.000000
      length 3.937000
      axis 0.0 0.0 90.0 xyz
   end
   begin
      id 22
      name RightHandThumb1
      direction 0.000000 0.000000 1.000000
      length 3.937000
      axis 0.0 0.0 90.0 xyz
      dof rx rz ry
   end
   begin
      id 23
      name LeftUpLeg
      direction 0.000000 -1.000000 0.000000
      length 19.114733
      axis 0.0 0.0 0.0 xyz
      dof rx ry rz
   end
   begin
      id 24
      name LeftLeg
      direction 0.000000 -1.000000 0.000000
      length 16.045604
      axis 0.0 0.0 0.0 xyz
      dof rx ry rz
   end
   begin
      id 25
      name LeftFoot
      direction 0.000000 -0.258819 0.965926
      length 5.543155
      axis 15.0 0.0 0.0 xyz
      dof rx ry rz
   end
   begin
      id 26
      name LeftToeBase
      direction 0.000000 0.000000 1.000000
      length 2.952750
      axis 0.0 0.0 0.0 xyz
      dof rx ry rz
   end
   begin
      id 27
      name RightUpLeg
      direction 0.000000 -1.000000 0.000000
      length 19.114733
      axis 0.0 0.0 0.0 xyz
      dof rx ry rz
   end
   begin
      id 28
      name RightLeg
      direction 0.000000 -1.000000 0.000000
      length 16.045604
      axis 0.0 0.0 0.0 xyz
      dof rx ry rz
   end
   begin
      id 29
      name RightFoot
      direction 0.000000 -0.258819 0.965926
      length 5.543155
      axis 15.0 0.0 0.0 xyz
      dof rx ry rz
   end
   begin
      id 30
      name RightToeBase
      direction 0.000000 0.000000 1.000000
      length 2.952750
      axis 0.0 0.0 0.0 xyz
      dof rx ry rz
   end
:hierarchy
   begin
      root Spine_dum LeftUpLeg_dum RightUpLeg_dum
      Spine_dum Spine
      LeftUpLeg_dum LeftUpLeg
      RightUpLeg_dum RightUpLeg
      Spine Spine_dum1 Spine_dum2 Spine_dum3
      Spine_dum1 Head
      Spine_dum2 LeftShoulder
      Spine_dum3 RightShoulder
      LeftShoulder LeftArm
      LeftArm LeftForeArm
      LeftForeArm LeftHand
      LeftHand LeftHand_dum1 LeftHand_dum2
      LeftHand_dum1 LeftHandThumb1
      RightShoulder RightArm
      RightArm RightForeArm
      RightForeArm RightHand
      RightHand RightHand_dum1 RightHand_dum2
      RightHand_dum1 RightHandThumb1
      LeftUpLeg LeftLeg
      LeftLeg LeftFoot
      LeftFoot LeftToeBase
      RightUpLeg RightLeg
      RightLeg RightFoot
      RightFoot RightToeBase
   end

# File created by Blade
# Date/Time:  Tue Jan 27 17:21:37 2015
# Frame Rate: 120.000 fps
#------------------------------------------------------
:FULLY-SPECIFIED
:DEGREES
2303
root -2.085518 36.332561 1.201413 5.694969 26.769427 -0.178733
Spine -1.240968 6.112949 -0.313863
Head 1.780782 -2.071732 0.925557
LeftShoulder 0.503359 -15.115359 9.407618
LeftArm 5.203179 -14.839596 -42.304825
LeftForeArm -0.091852 -0.000000 70.263057
LeftHand -17.050391 -0.000000 47.974893
LeftHandThumb1 -26.253704 0.000000 33.147579
RightShoulder -3.592304 -18.072285 2.195523
RightArm 19.888871 -24.646101 52.118136
RightForeArm 177.898439 0.000000 35.354144
RightHand -0.182463 -0.000000 0.363184
RightHandThumb1 -24.326973 -0.000000 -32.862282
LeftUpLeg -56.697294 22.619391 -2.267410
LeftLeg 80.980746 -0.000000 -0.000000
LeftFoot -6.609851 6.977855 -29.461649
LeftToeBase 14.135312 -0.000000 -0.000000
RightUpLeg -12.469560 -10.999495 9.916836
RightLeg 20.978795 -0.000000 -0.000000
RightFoot -19.068043 -4.857782 -3.477520
RightToeBase 3.142291 -0.000000 -0.000000
2304
root -2.091812 36.331251 1.203305 5.713115 26.758308 -0.179639
Spine -1.264717 6.138404 -0.308332
Head 1.793423 -2.100776 0.921428
LeftShoulder 0.462635 -15.130491 9.440539
LeftArm 5.162003 -14.859380 -42.338140
LeftForeArm -0.165577 0.000000 70.221277
LeftHand -16.746397 -0.000000 47.783796
LeftHandThumb1 -26.253704 0.000000 33.147579
RightShoulder -3.580182 -18.062886 2.182678
RightArm 19.915385 -24.637891 52.093950
RightForeArm 177.921832 -0.000000 35.369340
RightHand -0.148384 0.000000 0.304391
RightHandThumb1 -24.326973 -0.000000 -32.862282
LeftUpLeg -56.717962 22.596827 -2.351572
LeftLeg 80.992004 -0.000000 -0.000000
LeftFoot -6.651326 7.046590 -29.395821
LeftToeBase 14.376290 -0.000000 -0.000000
RightUpLeg -12.486101 -10.949398 9.925386
RightLeg 20.986525 -0.000000 -0.000000
RightFoot -19.069646 -4.882714 -3.488421
RightToeBase 3.125719 -0.000000 -0.000000
2305
root -2.098140 36.329400 1.205152 5.721925 26.755149 -0.182411
Spine -1.275569 6.163623 -0.301291
Head 1.804713 -2.119368 0.918420
LeftShoulder 0.441841 -15.112971 9.428758
LeftArm 5.151870 -14.891981 -42.311923
LeftForeArm -0.224333 0.000000 70.190876
LeftHand -16.631447 -0.000000 47.668352
LeftHandThumb1 -26.253704 0.000000 33.147579
RightShoulder -3.555734 -18.043133 2.173738
RightArm 19.935290 -24.678780 52.030380
RightForeArm 178.073802 -0.000000 35.382016
RightHand -0.138337 -0.000000 0.233256
RightHandThumb1 -24.326973 -0.000000 -32.862282
LeftUpLeg -56.702782 22.531721 -2.357768
LeftLeg 81.006030 -0.000000 -0.000000
LeftFoot -6.583834 6.922283 -29.469214
LeftToeBase 14.167801 -0.000000 -0.000000
RightUpLeg -12.500138 -10.964339 9.952137
RightLeg 20.974138 -0.000000 -0.000000
RightFoot -19.082141 -4.920318 -3.470463
RightToeBase 3.169976 -0.000000 -0.000000
2306
root -2.104023 36.327016 1.206464 5.738451 26.768627 -0.189123
Spine -1.298789 6.192927 -0.278575
Head 1.809381 -2.153427 0.895373
LeftShoulder 0.428243 -15.098144 9.416345
LeftArm 5.154182 -14.896024 -42.298960
LeftForeArm -0.314167 -0.000000 70.152263
LeftHand -16.548356 -0.000000 47.673908
LeftHandThumb1 -26.253704 0.000000 33.147579
RightShoulder -3.555905 -18.050122 2.155046
RightArm 19.971819 -24.677368 51.989971
RightForeArm 178.034614 0.000000 35.382382
RightHand -0.173446 -0.000000 0.198420
RightHandThumb1 -24.326973 -0.000000 -32.862282
LeftUpLeg -56.709972 22.471678 -2.409982
LeftLeg 81.010623 -0.000000 -0.000000
LeftFoot -6.627898 6.919084 -29.224958
LeftToeBase 14.459361 -0.000000 -0.000000
RightUpLeg -12.521966 -10.973104 9.976470
RightLeg 20.969252 -0.000000 -0.000000
RightFoot -19.089009 -4.952447 -3.471484
RightToeBase 3.134936 -0.000000 -0.000000
